<?xml version="1.0" encoding="UTF-8"?> <svg xmlns="http://www.w3.org/2000/svg" viewBox="0 0 240 44"><defs><style>.cls-1{fill:#f08307;}</style></defs><g id="レイヤー_2" data-name="レイヤー 2"><g id="レイヤー_1-2" data-name="レイヤー 1"><path class="cls-1" d="M121.49,38.19a14.3,14.3,0,0,1-4.56,4.3.54.54,0,0,1-.32.1.34.34,0,0,1-.35-.33.35.35,0,0,1,.22-.33,12.17,12.17,0,0,0,4.72-4.53c-1.32,0-2.65.06-3.9.11h0a.33.33,0,0,1-.35-.31.32.32,0,0,1,.35-.32c1.37-.05,2.86-.08,4.33-.1,0-.87-.06-1.61-.07-2v0a.32.32,0,0,1,.32-.35.36.36,0,0,1,.38.35c0,.42,0,1.16,0,2h2.39a.34.34,0,0,1,.39.33.35.35,0,0,1-.39.33h0c-.77,0-1.56,0-2.36,0,0,0,0,1.82.16,4.94v.05c0,.87-.56,1.29-1.44,1.29-.24,0-1.22,0-1.22-.46a.34.34,0,0,1,.33-.34h.1A2.54,2.54,0,0,0,121,43a.69.69,0,0,0,.79-.76c0-.67-.1-3.78-.11-4.3Z"></path><path class="cls-1" d="M131.44,36.58a.35.35,0,0,1-.37-.36.37.37,0,0,1,.38-.35c1.17,0,2.7-.08,4.07-.08h1.64c.73,0,1.17.43,1.17,1a1.56,1.56,0,0,1-.09.45,9.59,9.59,0,0,1-5.91,6.25.71.71,0,0,1-.27.05.38.38,0,0,1-.41-.36.43.43,0,0,1,.34-.39,8.21,8.21,0,0,0,5.5-5.91c0-.42-.27-.44-1.23-.44-1.33,0-3.27.07-4.81.12Z"></path><path class="cls-1" d="M149.29,43.57a.36.36,0,0,1-.36.38.32.32,0,0,1-.33-.35h0c0-.84.05-2.68.05-3.78a10.2,10.2,0,0,1-3.19,2.35.32.32,0,0,1-.32-.32.37.37,0,0,1,.21-.33A13.36,13.36,0,0,0,150,37.19a.39.39,0,0,1,.33-.2.36.36,0,0,1,.35.33.37.37,0,0,1-.09.23c-.43.56-.84,1.09-1.26,1.57,0,.69,0,2.16,0,3.29,0,.46,0,.87,0,1.15Z"></path><path class="cls-1" d="M160.64,38.91a.38.38,0,0,1,.22.33.39.39,0,0,1-.37.39.38.38,0,0,1-.22-.07,5,5,0,0,0-1.84-.72.26.26,0,0,1-.23-.27.35.35,0,0,1,.36-.37A7.64,7.64,0,0,1,160.64,38.91Zm-.93,4.64a.4.4,0,0,1-.41-.39.37.37,0,0,1,.31-.36,11.33,11.33,0,0,0,6.82-6.08.34.34,0,0,1,.32-.2.36.36,0,0,1,.38.35.51.51,0,0,1-.08.27A12.26,12.26,0,0,1,159.71,43.55Zm2.1-6.19a5.5,5.5,0,0,0-1.64-1.12A.28.28,0,0,1,160,36a.35.35,0,0,1,.35-.35c.17,0,2.13.93,2.13,1.47a.39.39,0,0,1-.37.4A.42.42,0,0,1,161.81,37.36Z"></path><path class="cls-1" d="M173.51,40.4a.47.47,0,0,1-.16,0,.28.28,0,0,1-.29-.3.34.34,0,0,1,.24-.31l1.74-.62c-.17-.59-.34-1.11-.46-1.48a.8.8,0,0,1,0-.15.32.32,0,0,1,.33-.31.32.32,0,0,1,.33.26l.42,1.48a22.45,22.45,0,0,1,3.12-1,.54.54,0,0,1,.61.52c0,.74-1.48,2.63-2,2.63a.32.32,0,0,1-.31-.32.38.38,0,0,1,.16-.29,4.3,4.3,0,0,0,1.38-1.87s0-.05-.06-.05c-.21,0-2.31.76-2.76.92.41,1.37.89,3,1.22,3.86a.82.82,0,0,1,0,.21.34.34,0,0,1-.33.36.36.36,0,0,1-.34-.29c-.28-.93-.74-2.53-1.17-3.93Z"></path><path class="cls-1" d="M184.89,42.59a.42.42,0,0,1,.28-.36A5.42,5.42,0,0,0,188.29,37v-.31c0-.27.16-.4.34-.4.39,0,.39.34.39.58,0,4.4-3.34,6.09-3.74,6.09A.37.37,0,0,1,184.89,42.59Zm6.24-6.13L191,41.19v0c0,.24.11.33.27.33.38,0,2.28-1.17,3.61-3.64a.39.39,0,0,1,.35-.24.36.36,0,0,1,.35.37.37.37,0,0,1-.06.22c-1.43,2.56-3.68,4.11-4.46,4.11a.75.75,0,0,1-.77-.81v-.1c.08-1.16.18-4.23.18-5a.37.37,0,0,1,.37-.41.35.35,0,0,1,.34.39Z"></path><path d="M208.6,37.75c-.89,0-1.82,0-2.76,0v.54a6.14,6.14,0,0,1-3.31,5.66.64.64,0,0,1-.3.09.32.32,0,0,1-.33-.32.4.4,0,0,1,.23-.34,5.43,5.43,0,0,0,3-5v-.58c-.9,0-1.77,0-2.64,0,0,.84,0,1.67,0,2.23a.36.36,0,0,1-.38.38.31.31,0,0,1-.34-.32v0c0-.6,0-1.42,0-2.25l-2.67.1h0c-.25,0-.36-.15-.36-.3a.34.34,0,0,1,.35-.32l2.71-.07c0-.72,0-1.42-.06-1.93v0a.32.32,0,0,1,.34-.34.35.35,0,0,1,.35.35c0,.49,0,1.19.05,1.93l2.65,0c0-.79,0-1.58,0-2s.24-.41.33-.41a.36.36,0,0,1,.36.4v2l2.75,0c.3,0,.43.15.43.31a.37.37,0,0,1-.4.35Z"></path><path d="M218.47,43.47a.41.41,0,0,1-.4.42.35.35,0,0,1-.35-.39v0c0-1.12.08-3.52.08-5v-.36a19.86,19.86,0,0,1-4.09,3.22.78.78,0,0,1-.38.13.32.32,0,0,1-.34-.33.44.44,0,0,1,.24-.36,18.26,18.26,0,0,0,6.37-6,.43.43,0,0,1,.38-.23.35.35,0,0,1,.36.34.41.41,0,0,1-.1.26c-.59.79-1.16,1.51-1.74,2.16,0,.85,0,2.65,0,4.17,0,.8,0,1.53,0,2Z"></path><path d="M230.86,34.54l0,3.29a.23.23,0,0,1,.11,0,9.54,9.54,0,0,1,3.33,1.13.4.4,0,0,1,.16.31.36.36,0,0,1-.59.32,9.08,9.08,0,0,0-3-1.11l-.07,0V40c0,1.39,0,2.71,0,3.52a.41.41,0,0,1-.41.46.37.37,0,0,1-.38-.4v0c.06-1.44.1-4.32.1-6.56,0-1,0-1.86,0-2.42v0a.34.34,0,0,1,.36-.34.36.36,0,0,1,.38.36Z"></path><path d="M3.06,12.14a17.65,17.65,0,0,1-2.3,3.48.47.47,0,0,1-.35.18A.41.41,0,0,1,0,15.43a.38.38,0,0,1,.13-.27,15.6,15.6,0,0,0,2.93-4.4v-.32l-2.28,0a.36.36,0,0,1,0-.71l2.27,0L3,6.87a.36.36,0,0,1,.39-.36.37.37,0,0,1,.4.36s0,1.43,0,2.91l1.86,0a.36.36,0,0,1,0,.71l-1.87,0V12c0,2.21,0,6.92,0,6.92a.36.36,0,0,1-.4.34A.36.36,0,0,1,3,18.91Zm2.39,1.74A8.35,8.35,0,0,0,4,12.59a.22.22,0,0,1-.12-.2.36.36,0,0,1,.36-.33c.16,0,1.89,1.06,1.89,1.54a.41.41,0,0,1-.38.41A.34.34,0,0,1,5.45,13.88Zm6.89,1.73a.45.45,0,0,1,.47.4v.13c0,2.46-1.26,2.65-2.83,2.65s-2.51-.4-2.51-1.58c0-.65,0-9.53,0-10a.39.39,0,0,1,.41-.37.37.37,0,0,1,.41.37c0,.63-.08,8.13-.08,9.64,0,.91.23,1.19,1.62,1.19S12,18,12,16.09V16A.34.34,0,0,1,12.34,15.61Z"></path><path d="M17,9.53h-.46c-.46,0-.66.25-.66.73,0,.64,0,1.53,0,2.47s0,1.89,0,2.65a.33.33,0,0,1-.34.34.34.34,0,0,1-.34-.35c0-.8,0-1.75,0-2.67s0-1.85,0-2.58a1.09,1.09,0,0,1,1.23-1.2H17l0-2.07a.35.35,0,0,1,.37-.35.35.35,0,0,1,.37.35V8.93h.64a1.08,1.08,0,0,1,1.18,1.21c0,.88,0,2.58,0,3.08,0,.31,0,.65,0,1.07v.09c0,.73-.29,1.13-1,1.13s-.81-.15-.81-.46.07-.33.22-.33h0a2.34,2.34,0,0,0,.46.07c.26,0,.39-.13.39-.54,0-.09,0-2.88,0-4,0-.46-.18-.71-.66-.73h-.52l0,9.35a.34.34,0,0,1-.35.35.35.35,0,0,1-.37-.35Zm2.33,9.61a.37.37,0,0,1-.38-.38.34.34,0,0,1,.27-.35,3.67,3.67,0,0,0,3-2.87.31.31,0,0,1,.33-.24.36.36,0,0,1,.39.32s0,.06,0,.09A4.57,4.57,0,0,1,19.32,19.14ZM24.63,15c0,.79-.06,1.66-.06,2.32,0,.83.05,1.07.78,1.07,1.26,0,1.46-.19,1.46-1.44,0-.13,0-.41.34-.41s.38.1.38.28v.11c0,1.53-.38,2.1-2.06,2.1-1,0-1.6-.25-1.6-1.27s0-2.35,0-2.77H20.15a.32.32,0,1,1,0-.64h3V12.11a.33.33,0,0,1,.36-.35.35.35,0,0,1,.37.35l0,2.21h.63a16.62,16.62,0,0,0,1.1-1.89.3.3,0,0,1,.28-.19.46.46,0,0,1,.43.39,7.68,7.68,0,0,1-1.09,1.69h2.07a.32.32,0,0,1,.32.33.29.29,0,0,1-.31.31Zm-1.11-3.37c-.55,0-1.07,0-1.6,0-1,0-1.36-.48-1.38-1.11,0-.28,0-.62,0-1s0-1,0-1.41c0-.6.45-1.1,1.33-1.13.48,0,1,0,1.48,0s1.23,0,1.85,0a1.21,1.21,0,0,1,1.29,1c0,.37,0,.79,0,1.23s0,.85,0,1.22c0,.66-.44,1.09-1.32,1.13ZM21.57,14a4.34,4.34,0,0,0-.94-1.21.23.23,0,0,1-.07-.18.37.37,0,0,1,.39-.32,2.84,2.84,0,0,1,1.26,1.48.42.42,0,0,1-.38.42A.29.29,0,0,1,21.57,14ZM25.82,8.9c0-1.37,0-1.37-2.13-1.37-.57,0-1.13,0-1.67,0s-.78.4-.78,1.34Zm-4.58.58c0,.31,0,.59,0,.84,0,.63.46.66,2.06.66.57,0,1.12,0,1.75-.05s.75-.41.75-1.45Z"></path><path d="M30.06,9.44a.37.37,0,0,1-.37-.37.35.35,0,0,1,.37-.36h5.28l0-1.83a.39.39,0,0,1,.43-.38.38.38,0,0,1,.41.38l0,1.83h5.21a.34.34,0,0,1,.36.36.35.35,0,0,1-.36.37Zm10.38,6.84c0,1-.56,1.57-1.81,1.57a6.25,6.25,0,0,1-1.05-.11.36.36,0,0,1-.28-.36c0-.2.13-.41.32-.41h.06a4.47,4.47,0,0,0,1,.11c.65,0,1-.22,1-.81v0c0-.1,0-2.84,0-3.31a.79.79,0,0,0-.85-.84H36.14l0,6.72a.39.39,0,0,1-.41.4.38.38,0,0,1-.41-.4V12.08h-2.5A.81.81,0,0,0,32,13c0,.27,0,1,0,1.83,0,1.13,0,2.4,0,2.89h0a.36.36,0,0,1-.39.35.38.38,0,0,1-.42-.38c0-.41,0-1.41,0-2.42s0-2,0-2.46c0-.82.52-1.39,1.59-1.41h2.61V10.14a.4.4,0,0,1,.79,0v1.25h2.8a1.35,1.35,0,0,1,1.48,1.41c0,.41,0,1.67,0,2.48Z"></path><path d="M44.34,9.73A.33.33,0,0,1,44,9.4.34.34,0,0,1,44.34,9h3.9a.35.35,0,1,1,0,.69Zm.13,8.15c0-.42,0-.85,0-1.24s0-.58,0-.85a1,1,0,0,1,1-1c.26,0,.55,0,.86,0s.6,0,.85,0a1,1,0,0,1,1,.88c0,.38,0,.79,0,1.2,0,1.5,0,1.94-1.82,1.94C45.43,18.85,44.5,18.85,44.47,17.88ZM45,7.69A.33.33,0,1,1,45,7h2.86a.33.33,0,1,1,0,.65Zm0,4a.34.34,0,0,1-.34-.34A.33.33,0,0,1,45,11h2.74a.32.32,0,0,1,.34.34.33.33,0,0,1-.34.34Zm0,1.92a.34.34,0,0,1-.34-.34.33.33,0,0,1,.34-.34h2.74a.32.32,0,0,1,.34.34.33.33,0,0,1-.34.34ZM47.52,17c0-.35,0-.74,0-1,0-.59-.43-.59-1.17-.59-1.21,0-1.21.06-1.21,1.42,0,.31,0,.62,0,.85,0,.46.29.53,1.27.53S47.52,18.06,47.52,17Zm6.41-2.32a7,7,0,0,0,.54,2.3,5.59,5.59,0,0,0,.87-1.49.25.25,0,0,1,.25-.18.39.39,0,0,1,.38.34,4.58,4.58,0,0,1-1.21,1.89c.22.31.6.85.94.85s.51-.63.65-1a.25.25,0,0,1,.23-.16.35.35,0,0,1,.37.32c0,.21-.38,1.52-1.29,1.52-.47,0-.93-.35-1.38-1.08a5.15,5.15,0,0,1-2.15,1,.33.33,0,0,1-.34-.33.29.29,0,0,1,.25-.29,5.07,5.07,0,0,0,2-.95,8.63,8.63,0,0,1-.72-2.76l-2.07,0v1.2a12.07,12.07,0,0,0,1.2-.32.15.15,0,0,1,.09,0,.29.29,0,0,1,.27.29c0,.21-.08.31-1.56.65v.35l0,1.2v0c0,.49-.28,1.06-1.34,1.06-.58,0-1-.08-1-.43a.33.33,0,0,1,.34-.33h.09a2.72,2.72,0,0,0,.64.09c.41,0,.65-.16.65-.56V16.62c-.37.07-1.37.22-1.53.22a.3.3,0,0,1-.32-.31.29.29,0,0,1,.28-.3c.53-.06,1-.14,1.57-.22V14.69H49a.29.29,0,1,1,0-.57h1.59v-1a10.21,10.21,0,0,1-1.21.14h0A.27.27,0,0,1,49,13a.24.24,0,0,1,.24-.26,11.65,11.65,0,0,0,2.62-.46H52a.32.32,0,0,1,.29.31c0,.23-.17.28-1.07.45v1.13l2,0c0-.16-.08-1-.08-1.48a.33.33,0,0,1,.35-.32.35.35,0,0,1,.37.37c0,.45,0,1,0,1.43l2.39,0a.27.27,0,0,1,.29.27.29.29,0,0,1-.29.3Zm-4.79-2.94a.28.28,0,0,1-.28-.3.27.27,0,0,1,.28-.28l3.06,0v-1l-2.4,0a.27.27,0,0,1-.28-.28.26.26,0,0,1,.28-.28l2.4,0v-1l-2.77,0a.28.28,0,0,1-.29-.28.27.27,0,0,1,.29-.28h1.8A.38.38,0,0,1,51.11,8a3.12,3.12,0,0,0-.7-1,.28.28,0,0,1-.09-.19c0-.16.19-.29.38-.29s1.07.91,1.07,1.24a.38.38,0,0,1-.2.34h1.58a9.76,9.76,0,0,0,.73-1.44.32.32,0,0,1,.31-.2c.21,0,.46.18.46.38a6.36,6.36,0,0,1-.78,1.26H56a.26.26,0,0,1,.28.28.27.27,0,0,1-.28.28l-3,0v1l2.45,0a.25.25,0,0,1,.26.28.26.26,0,0,1-.26.28l-2.45,0v1l3.39,0a.27.27,0,0,1,.26.28.27.27,0,0,1-.26.3ZM55.7,13.5a4.06,4.06,0,0,0-1.19-.87.2.2,0,0,1-.11-.17.3.3,0,0,1,.31-.27c.23,0,1.48.65,1.48,1a.38.38,0,0,1-.34.35A.23.23,0,0,1,55.7,13.5Z"></path><path d="M70.76,12.21c-.58,0-3.41-2.3-5.13-4.22-.23-.27-.42-.4-.61-.4s-.36.13-.56.4c-1.64,2.09-4.62,4.61-5.22,4.61a.43.43,0,0,1-.44-.42.47.47,0,0,1,.28-.4,16.67,16.67,0,0,0,4.85-4.36,1.34,1.34,0,0,1,1-.59,1.6,1.6,0,0,1,1.1.57,18.3,18.3,0,0,0,4.93,4,.41.41,0,0,1,.25.37A.49.49,0,0,1,70.76,12.21Zm-6.37,2.07a29.72,29.72,0,0,1-1.32,3.53c1.74-.16,3.46-.38,5.11-.68a16,16,0,0,0-1.58-1.3.36.36,0,0,1-.16-.26.37.37,0,0,1,.39-.33c.63,0,3.4,2.58,3.4,3.26a.45.45,0,0,1-.45.44.37.37,0,0,1-.32-.19,8.47,8.47,0,0,0-.77-1.06,58.11,58.11,0,0,1-8.22,1,.34.34,0,0,1-.33-.38c0-.19.1-.37.3-.37l1.79-.11a22.54,22.54,0,0,0,1.28-3.59l-3.29,0a.34.34,0,0,1-.35-.34.36.36,0,0,1,.37-.38h9.51a.35.35,0,0,1,.38.35.36.36,0,0,1-.38.37ZM62.8,11.56a.34.34,0,0,1-.35-.35.34.34,0,0,1,.35-.35h4.61a.35.35,0,1,1,0,.7Z"></path><path d="M73.64,9.73a.33.33,0,0,1-.35-.33A.34.34,0,0,1,73.64,9h3.9a.35.35,0,1,1,0,.69Zm.13,8.15c0-.42,0-.85,0-1.24s0-.58,0-.85a1,1,0,0,1,1-1c.27,0,.56,0,.87,0s.6,0,.85,0a1,1,0,0,1,1,.88c0,.38,0,.79,0,1.2,0,1.5,0,1.94-1.82,1.94C74.73,18.85,73.8,18.85,73.77,17.88Zm.49-10.19a.33.33,0,1,1,0-.65h2.85a.33.33,0,1,1,0,.65Zm0,4a.34.34,0,0,1-.34-.34.33.33,0,0,1,.34-.34H77a.31.31,0,0,1,.33.34.32.32,0,0,1-.33.34Zm0,1.92a.34.34,0,0,1-.34-.34.33.33,0,0,1,.34-.34H77a.31.31,0,0,1,.33.34.32.32,0,0,1-.33.34ZM76.82,17c0-.35,0-.74,0-1,0-.59-.43-.59-1.18-.59-1.2,0-1.2.06-1.2,1.42,0,.31,0,.62,0,.85,0,.46.29.53,1.27.53S76.82,18.06,76.82,17Zm6.41-2.32a7,7,0,0,0,.54,2.3,5.56,5.56,0,0,0,.86-1.49.27.27,0,0,1,.25-.18.38.38,0,0,1,.38.34,4.63,4.63,0,0,1-1.2,1.89c.22.31.6.85.94.85s.51-.63.64-1a.27.27,0,0,1,.24-.16.35.35,0,0,1,.37.32c0,.21-.38,1.52-1.29,1.52-.47,0-.93-.35-1.38-1.08a5.1,5.1,0,0,1-2.16,1,.33.33,0,0,1-.33-.33.29.29,0,0,1,.25-.29,5.07,5.07,0,0,0,2-.95,8.37,8.37,0,0,1-.72-2.76l-2.07,0v1.2a12.07,12.07,0,0,0,1.2-.32.15.15,0,0,1,.09,0,.28.28,0,0,1,.26.29c0,.21-.07.31-1.55.65v.35l0,1.2v0c0,.49-.28,1.06-1.34,1.06-.58,0-1-.08-1-.43a.33.33,0,0,1,.34-.33h.09a2.72,2.72,0,0,0,.64.09c.41,0,.65-.16.65-.56V16.62c-.37.07-1.37.22-1.53.22a.3.3,0,0,1-.32-.31.29.29,0,0,1,.28-.3c.53-.06,1-.14,1.57-.22V14.69H78.24a.29.29,0,1,1,0-.57h1.6v-1a10.3,10.3,0,0,1-1.22.14h0a.27.27,0,0,1-.28-.29.24.24,0,0,1,.24-.26,11.65,11.65,0,0,0,2.62-.46h.09a.32.32,0,0,1,.29.31c0,.23-.18.28-1.07.45v1.13l2,0c0-.16-.07-1-.07-1.48a.33.33,0,0,1,.35-.32.35.35,0,0,1,.37.37c0,.45,0,1,0,1.43l2.39,0a.27.27,0,0,1,.29.27.29.29,0,0,1-.29.3Zm-4.8-2.94a.27.27,0,0,1-.27-.3.26.26,0,0,1,.27-.28l3.07,0v-1l-2.41,0a.26.26,0,0,1-.27-.28.25.25,0,0,1,.27-.28l2.41,0v-1l-2.77,0a.29.29,0,0,1-.3-.28.28.28,0,0,1,.3-.28h1.8A.38.38,0,0,1,80.41,8a3.12,3.12,0,0,0-.7-1,.28.28,0,0,1-.09-.19c0-.16.19-.29.38-.29s1.07.91,1.07,1.24a.4.4,0,0,1-.2.34h1.58a9.76,9.76,0,0,0,.73-1.44.32.32,0,0,1,.31-.2c.21,0,.46.18.46.38a6.36,6.36,0,0,1-.78,1.26h2.11a.26.26,0,0,1,.28.28.27.27,0,0,1-.28.28l-3,0v1l2.45,0a.26.26,0,0,1,.26.28.27.27,0,0,1-.26.28l-2.45,0v1l3.38,0a.27.27,0,0,1,.27.28.28.28,0,0,1-.27.3ZM85,13.5a4.19,4.19,0,0,0-1.19-.87.2.2,0,0,1-.11-.17.3.3,0,0,1,.3-.27c.24,0,1.48.65,1.48,1a.37.37,0,0,1-.33.35A.21.21,0,0,1,85,13.5Z"></path><path d="M88.73,19.33a.41.41,0,0,1-.44-.41.39.39,0,0,1,.38-.38,9.09,9.09,0,0,0,3.84-1.35.33.33,0,0,1,.19-.06.43.43,0,0,1,.38.44.38.38,0,0,1-.17.3A11.57,11.57,0,0,1,88.73,19.33Zm8.56-2.42c-.78,0-1.64,0-2.51,0-1.18,0-2.37,0-3.32,0s-1.51-.56-1.54-1.28c0-.57,0-1.14,0-1.7s0-1.33,0-1.93.48-1.22,1.51-1.23c.66,0,1.39,0,2.15,0l3.78,0A1.33,1.33,0,0,1,98.8,11.9c0,.54,0,1.07,0,1.61,0,.69,0,1.4,0,2.11A1.39,1.39,0,0,1,97.29,16.91Zm-3.18-7.1c-.84,0-1.66,0-2.45,0-1.17,0-1.36-.46-1.36-1.37,0-.61.06-1.32,1.3-1.33.82,0,1.66,0,2.49,0l3.11,0c1,0,1.22.53,1.22,1.33,0,.6,0,1.35-1.32,1.37C96.15,9.79,95.12,9.81,94.11,9.81ZM98,12.62c0-.73-.09-1.25-1-1.26s-2.18,0-3.38,0h-2c-.65,0-1,.34-1,.83,0,.14,0,.3,0,.45Zm-7.37.56v1.26H98c0-.22,0-.43,0-.63s0-.43,0-.63Zm0,1.81v.46c0,.58.36.8,1,.83s1.83,0,2.9,0c.91,0,1.82,0,2.52,0,1,0,1-.76,1-1.31Zm7-6.5c0-.46,0-.82-.75-.82s-1.62,0-2.52,0-1.77,0-2.53,0-.75.33-.75.73c0,.82,0,.82,3,.82,1,0,2,0,2.8,0S97.61,8.85,97.61,8.49Zm2.2,10.74a11.26,11.26,0,0,1-4.13-1.47.33.33,0,0,1-.18-.29.41.41,0,0,1,.4-.39.38.38,0,0,1,.19.05,9.22,9.22,0,0,0,3.82,1.26.38.38,0,0,1,.38.39A.46.46,0,0,1,99.81,19.23Z"></path><path d="M120.64,16.67q-3.52,0-6.74-.17a3,3,0,0,1-3.16-2.88c0-.88-.06-1.78-.06-2.63s0-1.73.06-2.49a3,3,0,0,1,3.1-2.93c2.08-.06,4.43-.09,6.8-.09V1.11A1.14,1.14,0,0,1,121.87,0a1.17,1.17,0,0,1,1.26,1.11V5.48c2.43,0,4.83,0,7,.09a3.06,3.06,0,0,1,3,2.69c.06.76.06,1.67.06,2.61s0,1.9-.06,2.72A3.15,3.15,0,0,1,130,16.5c-2.2.08-4.52.17-6.83.17v8.06c0,.67-.62,1-1.26,1a1.1,1.1,0,0,1-1.23-1Zm0-9c-2.17,0-4.25,0-5.89.08a1.55,1.55,0,0,0-1.64,1.47c0,.56-.06,1.26-.06,2,0,2.17,0,3,1.73,3.08s3.75.12,5.86.12Zm2.49,6.71c2.08,0,4.13-.06,6-.12a1.5,1.5,0,0,0,1.61-1.47c0-.52.06-1.14.06-1.78,0-2.44-.06-3.23-1.7-3.26s-3.78-.08-5.92-.08Z"></path><path d="M148.21,2.23V2.14c0-.67.58-1,1.2-1a1.25,1.25,0,0,1,1.35,1.12c0,.55,0,1.23,0,1.9,0,1.82-.06,3.93-.06,5.66v.82c0,4.65-.88,10.37-5,14.44a1.41,1.41,0,0,1-2.43-.82,1.05,1.05,0,0,1,.35-.76c4.1-3.93,4.6-8.85,4.63-13.19C148.3,3.57,148.24,2.49,148.21,2.23Zm7.79.58a1.12,1.12,0,0,1,1.23-1.08,1.17,1.17,0,0,1,1.29,1.08V22.24c0,.67-.61,1-1.26,1s-1.26-.32-1.26-1Zm8.21-.88A1.11,1.11,0,0,1,165.44.85a1.16,1.16,0,0,1,1.26,1.08V24.41c0,.67-.62,1-1.26,1a1.1,1.1,0,0,1-1.23-1Z"></path><path d="M196.32,22a19.2,19.2,0,0,0,6.59,1.29,1.09,1.09,0,0,1,1.17,1.09,1.23,1.23,0,0,1-1.32,1.23,23.26,23.26,0,0,1-7.7-1.82,1,1,0,0,1-.62-.94,1.14,1.14,0,0,1,.35-.82l-2.66,0c-.88,0-1.76,0-2.61,0A1.2,1.2,0,0,1,190,23a1,1,0,0,1-.62.94,20.71,20.71,0,0,1-7.82,1.84,1.14,1.14,0,0,1-1.29-1.11,1.12,1.12,0,0,1,1.23-1.11A16.55,16.55,0,0,0,188.35,22h-.91c-2,0-2.9-.88-3-2.08-.06-.88-.09-1.9-.09-2.9s0-2.25.09-3.19.79-2,2.9-2.08c1.23,0,2.46,0,3.72,0,2.05,0,4.16,0,6.42.06,1.7,0,2.69.93,2.75,1.87s.09,2,.09,3.08,0,2.17-.09,3.16c-.06,1.15-1.05,2.08-2.84,2.11ZM190.69,9.26a.75.75,0,0,1,.79.79.77.77,0,0,1-.82.79c-1.32.06-2.93.06-4.39.06-1.2,0-2.29,0-3,0a2.45,2.45,0,0,1-2.64-2.23c0-.91-.06-2-.06-3s0-2,.06-2.81a2.38,2.38,0,0,1,2.61-2c1.08,0,2.46-.06,3.87-.06s2.75,0,3.75.06a.79.79,0,0,1,.82.85.84.84,0,0,1-.88.85c-.82,0-2.05,0-3.28,0V3.87h1.84c1.85,0,1.85.88,1.85,1.93,0,1.55-.24,1.91-2,2-.3,0-.91.06-1.67.06v1.5l3.16-.09Zm-5.13-6.8c-.67,0-1.26,0-1.72,0-.85,0-1.15.35-1.18.85,0,.18,0,.32,0,.53h2.93Zm-2.93,4.1c1.64,0,4.9,0,5.92,0,.62,0,.79-.08.82-.44V5.54c0-.27-.2-.41-.73-.44h-6Zm2.93,1.29h-2.93c0,.21,0,.41,0,.59,0,.53.36.88,1.26.91h1.64Zm12.51,8.23H186.59v1.47h11.48Zm0-1.75c0-.65-.36-1-1.35-1-1.32,0-2.81-.06-4.34-.06s-3.05,0-4.39.06c-1,0-1.26.44-1.29,1l0,.41H198Zm-11.4,4.57,0,.5c0,1.11.55,1.11,5.24,1.11,1.64,0,3.28,0,4.81-.06.82,0,1.26-.29,1.32-1,0-.17,0-.35,0-.52Zm6.15-8a1,1,0,0,1-1-.94,1,1,0,0,1,.88-1,13.72,13.72,0,0,0,3.49-1.31c-1.76-1.62-2.61-3-2.61-3.32a1.09,1.09,0,0,1,1.12-.93.77.77,0,0,1,.67.35,11.53,11.53,0,0,0,2.46,2.84,7.9,7.9,0,0,0,2.73-3.54c0-.24-.24-.36-.59-.36h-1.7c-1.52,0-3.43,0-5,0a.87.87,0,0,1-.85-.93.91.91,0,0,1,.85-1c1,0,2,0,3.16,0,1.56,0,3.14,0,4.49.06,1.52,0,2.11.79,2.11,1.64s-1.38,3.37-3.61,5.21a13.28,13.28,0,0,0,4.48,1.53,1,1,0,0,1,.91,1,1.14,1.14,0,0,1-1.2,1.15c-1.49,0-4.25-1.32-5.86-2.43A14.9,14.9,0,0,1,192.77,10.93Z"></path><path d="M216.18,14.39a1.35,1.35,0,1,1,0-2.7h22.47A1.28,1.28,0,0,1,240,13a1.32,1.32,0,0,1-1.35,1.38Z"></path><path class="cls-1" d="M216.42,5.79a3.13,3.13,0,0,1-.33-1.46c0-.53.09-1.07.13-1.58s.07-.58.08-.85a.18.18,0,0,1,.35,0c0,.18-.06.65-.09.9a11.1,11.1,0,0,0-.15,1.47s0,.67.11.67,0,0,.07-.1l.26-.59a.17.17,0,0,1,.14-.1.14.14,0,0,1,.14.14.13.13,0,0,1,0,.06,3.92,3.92,0,0,0-.36,1.19s0,.09,0,.15a.19.19,0,0,1-.19.21A.18.18,0,0,1,216.42,5.79Zm3-3a5,5,0,0,0,.58-.14H220a.17.17,0,0,1,.17.16c0,.15-.09.18-.8.3,0,.22,0,.43,0,.75a1.85,1.85,0,0,1,0,.23,2.87,2.87,0,0,1-1.24,2.56.24.24,0,0,1-.15,0,.17.17,0,0,1-.18-.15.18.18,0,0,1,.1-.15A2.58,2.58,0,0,0,219.08,4c0-.1,0-.2,0-.83a5.71,5.71,0,0,1-.88.09c-.46,0-.54-.07-.54-.2a.17.17,0,0,1,.19-.17h.06a2.05,2.05,0,0,0,.37,0,4.5,4.5,0,0,0,.79-.08V2.55c0-.4,0-.53-.05-.77v0a.18.18,0,0,1,.18-.19c.19,0,.22.12.22.49,0,.12,0,.26,0,.43Z"></path><path class="cls-1" d="M224.21,5.44c0-.26,0-.43,0-.66s0-.58-.44-.58a1.45,1.45,0,0,0-1,.61,4.46,4.46,0,0,0-.41.88c-.13.4-.16.47-.33.47a.17.17,0,0,1-.18-.18,8.2,8.2,0,0,1,1-2c1.16-1.81,1.3-2,1.37-2.16a.19.19,0,0,1,.36.08c0,.07-.05.22-.39.65a17.17,17.17,0,0,0-1.13,1.67h0a.13.13,0,0,0,.07,0,1.23,1.23,0,0,1,.71-.23.72.72,0,0,1,.72.81c0,.21,0,.46,0,.65,0,.37.19.49.43.49s.92-.11,1.37-1.26a.2.2,0,0,1,.19-.14.19.19,0,0,1,.2.2c0,.22-.72,1.56-1.8,1.56a.69.69,0,0,1-.74-.78Z"></path><path class="cls-1" d="M230.14,4.58a.2.2,0,0,1,.18.19s-.28,1-.86,1c-.32,0-1.08-.4-1.19-2.2,0-.28,0-.41,0-.55s0-.34.18-.34.18.13.18.49c0,1.82.66,2.2.85,2.2s.29,0,.52-.63A.18.18,0,0,1,230.14,4.58Zm2.32-.14a2,2,0,0,0-.77-1.3.15.15,0,0,1-.07-.13.16.16,0,0,1,.17-.15,2.16,2.16,0,0,1,1.06,1.5.22.22,0,0,1-.22.23A.17.17,0,0,1,232.46,4.44Z"></path><path class="cls-1" d="M235.48,3c-.39,0-.59,0-.59-.23a.16.16,0,0,1,.17-.15h.07a1.79,1.79,0,0,0,.34,0,1.77,1.77,0,0,0,.45,0c.18-1.14.19-1.19.36-1.19a.17.17,0,0,1,.17.17v0a6.67,6.67,0,0,0-.18.87,2.48,2.48,0,0,0,.6-.32.27.27,0,0,1,.13,0,.18.18,0,0,1,.18.18.21.21,0,0,1-.14.18,4.53,4.53,0,0,1-.83.36c-.12.69-.22,1.43-.25,1.69a2.58,2.58,0,0,1,1.61-.68c.73,0,1.13.42,1.13.94a1.35,1.35,0,0,1-.37.88,3.06,3.06,0,0,1-1.74.77c-.13,0-.2-.08-.2-.16s.07-.17.21-.19c1-.11,1.74-.64,1.74-1.32,0-.33-.25-.6-.8-.6a2,2,0,0,0-1.38.64c-.1.1-.15.27-.3.31h0c-.11,0-.22-.1-.22-.29s.24-1.68.27-1.91A1.78,1.78,0,0,1,235.48,3Z"></path></g></g></svg> 